<svg width="31" height="31" viewBox="0 0 31 31" fill="none" xmlns="http://www.w3.org/2000/svg">
<g id="fluent:heart-20-regular">
<path id="Vector" d="M16.2684 27.0448L25.9482 17.2736C27.2039 15.9919 27.9051 14.2676 27.9001 12.4733C27.8952 10.6789 27.1846 8.95853 25.9218 7.68374C25.3024 7.05184 24.5634 6.54944 23.748 6.20575C22.9326 5.86207 22.057 5.68396 21.1721 5.6818C20.2872 5.67964 19.4107 5.85346 18.5936 6.19315C17.7765 6.53285 17.0351 7.03163 16.4126 7.66049L15.4888 8.59514L14.551 7.64964C13.9324 7.01858 13.1945 6.51681 12.3802 6.17351C11.5659 5.83021 10.6915 5.65223 9.8078 5.64993C8.9241 5.64762 8.04876 5.82103 7.23269 6.16007C6.41662 6.49911 5.67609 6.99702 5.05418 7.62484C2.43778 10.2676 2.45018 14.5626 5.07898 17.2178L14.8083 27.0448C15.2113 27.4524 15.8654 27.4524 16.2684 27.0448ZM17.5146 8.75014C17.9931 8.26713 18.563 7.88417 19.191 7.62357C19.8189 7.36298 20.4925 7.22996 21.1724 7.23227C21.8523 7.23458 22.525 7.37216 23.1511 7.63702C23.7773 7.90187 24.3446 8.28869 24.8198 8.77494C25.7951 9.75972 26.3443 11.0884 26.3489 12.4744C26.3535 13.8604 25.8133 15.1926 24.8446 16.1839V16.187L15.5384 25.58L6.17948 16.1266C4.14433 14.0713 4.14278 10.7481 6.15623 8.71449C6.63413 8.23237 7.20316 7.85013 7.83019 7.59004C8.45723 7.32994 9.12974 7.19718 9.80858 7.19949C10.4874 7.2018 11.159 7.33913 11.7843 7.60348C12.4095 7.86783 12.9759 8.25393 13.4505 8.73929L14.9385 10.2428C15.0106 10.3157 15.0964 10.3735 15.191 10.413C15.2856 10.4525 15.3871 10.4728 15.4896 10.4728C15.5921 10.4728 15.6935 10.4525 15.7881 10.413C15.8827 10.3735 15.9685 10.3157 16.0406 10.2428L17.5146 8.75014Z" fill="#2D2D2D"/>
</g>
</svg>
