<svg width="37" height="37" viewBox="0 0 37 37" fill="none" xmlns="http://www.w3.org/2000/svg">
<g id="mdi-light:account">
<path id="Vector" d="M17.7295 21.5835C24.1151 21.5835 29.292 23.9993 29.292 26.9793V30.8335H6.16699V26.9793C6.16699 23.9993 11.3439 21.5835 17.7295 21.5835ZM27.7503 26.9793C27.7503 24.8518 23.2641 23.1252 17.7295 23.1252C12.1949 23.1252 7.70866 24.8518 7.70866 26.9793V29.2918H27.7503V26.9793ZM17.7295 7.7085C19.1606 7.7085 20.533 8.27698 21.5449 9.2889C22.5568 10.3008 23.1253 11.6733 23.1253 13.1043C23.1253 14.5354 22.5568 15.9078 21.5449 16.9198C20.533 17.9317 19.1606 18.5002 17.7295 18.5002C16.2984 18.5002 14.926 17.9317 13.9141 16.9198C12.9021 15.9078 12.3337 14.5354 12.3337 13.1043C12.3337 11.6733 12.9021 10.3008 13.9141 9.2889C14.926 8.27698 16.2984 7.7085 17.7295 7.7085ZM17.7295 9.25016C16.7073 9.25016 15.727 9.65623 15.0042 10.379C14.2814 11.1018 13.8753 12.0821 13.8753 13.1043C13.8753 14.1265 14.2814 15.1068 15.0042 15.8296C15.727 16.5524 16.7073 16.9585 17.7295 16.9585C18.7517 16.9585 19.732 16.5524 20.4548 15.8296C21.1776 15.1068 21.5837 14.1265 21.5837 13.1043C21.5837 12.0821 21.1776 11.1018 20.4548 10.379C19.732 9.65623 18.7517 9.25016 17.7295 9.25016Z" fill="#2D2D2D"/>
</g>
</svg>
